<?xml version="1.0" encoding="utf-8"?>
<!-- Generator: Adobe Illustrator 22.1.0, SVG Export Plug-In . SVG Version: 6.00 Build 0)  -->
<svg version="1.1" id="Слой_1" xmlns="http://www.w3.org/2000/svg" xmlns:xlink="http://www.w3.org/1999/xlink" x="0px" y="0px"
	 viewBox="0 0 240 225" style="enable-background:new 0 0 240 225;" xml:space="preserve">
<style type="text/css">
	.st0{fill:#008A3A;}
</style>
<g transform="translate(0.000000,225.000000) scale(0.100000,-0.100000)">
	<path class="st0" d="M1082.19,2233.251c-26.232-5.465-67.765-19.674-92.904-30.604c-60.115-27.325-182.529-116.95-191.273-142.089
		c-4.372-9.837-20.767-37.162-38.255-61.207c-60.115-83.067-102.741-260.132-77.602-315.874
		c6.558-13.116,19.674-52.464,29.511-86.346c50.278-170.507,202.203-284.178,383.64-286.364
		c109.299-1.093,182.529,27.325,250.295,96.183c108.206,110.392,131.159,221.877,73.23,349.757
		c-37.162,81.974-81.974,119.136-163.949,136.624c-73.23,15.302-128.973,2.186-181.437-43.72
		c-51.371-45.906-68.858-103.834-44.813-153.019c22.953-49.185,75.416-72.137,112.578-48.092
		c21.86,14.209,22.953,19.674,12.023,44.813c-15.302,32.79,0,48.092,45.906,48.092c32.79,0,44.813-7.651,68.858-43.72
		c40.441-59.022,5.465-158.484-68.858-196.738c-77.602-39.348-172.693-25.139-255.76,38.255
		c-55.742,42.627-99.462,150.833-90.718,226.249c12.023,119.136,81.974,219.691,187.994,271.062
		c44.813,21.86,74.323,27.325,161.763,29.511c99.462,2.186,112.578,0,175.972-29.511
		c192.366-90.718,290.736-326.804,225.156-537.752c-69.951-225.156-312.595-390.198-539.938-363.966
		c-34.976,3.279-121.322,21.86-191.273,40.441c-101.648,27.325-148.647,33.883-238.272,33.883
		c-61.207,0-118.043-4.372-125.694-10.93c-7.651-5.465-45.906-21.86-85.253-36.069c-115.857-40.441-208.761-107.113-275.434-198.924
		C82.103,875.757,60.243,828.758,35.105,730.389c-17.488-68.858-22.953-245.923-7.651-263.411
		c5.465-5.465,15.302-31.697,22.953-59.022c24.046-81.974,53.557-128.973,130.066-206.575
		C301.794,78.966,434.046,29.782,595.809,48.363c169.414,18.581,299.479,103.834,368.338,240.458
		c66.672,131.159,69.951,195.645,19.674,351.943c-20.767,65.579-106.02,156.298-183.622,193.459
		c-78.695,38.255-207.668,38.255-280.899,1.093C426.395,788.317,364.095,688.855,364.095,588.3
		c-1.093-57.929,3.279-71.044,34.976-114.764c48.092-64.486,91.811-91.811,145.368-89.625
		c111.485,4.372,170.507,88.532,110.392,158.484c-20.767,22.953-33.883,24.046-51.371,1.093
		c-8.744-13.116-21.86-16.395-41.534-10.93c-69.951,17.488-39.348,130.066,43.72,158.484
		c118.043,41.534,236.086-65.579,237.179-216.412c0-97.276-52.464-175.971-150.833-227.342
		c-18.581-9.837-75.416-21.86-126.787-27.325c-90.718-8.744-95.09-7.651-160.67,24.046
		c-77.602,38.255-128.973,92.904-177.065,187.994c-43.72,85.253-52.464,158.484-29.511,249.202
		c32.79,127.88,119.136,243.737,215.319,290.736c128.973,63.393,133.345,64.486,233.9,64.486
		c143.182,0,255.76-41.534,354.129-130.066c39.348-36.069,78.695-73.23,86.346-84.16c33.883-46.999,68.858-134.438,88.532-218.598
		c43.72-185.808,98.369-289.643,207.668-394.57c80.881-78.695,150.833-119.136,263.411-155.205
		c62.3-19.674,88.532-21.86,208.761-16.395c130.066,5.465,140.996,8.744,222.97,48.092
		c109.299,52.464,212.04,154.112,274.341,269.969c39.348,75.416,42.627,86.346,45.906,195.645
		c4.372,122.415-9.837,198.924-52.464,284.178c-21.86,41.534-133.345,154.112-185.809,187.994
		c-78.695,50.278-275.434,72.137-366.152,40.441c-48.092-15.302-136.624-77.602-182.529-126.787
		c-15.302-17.488-41.534-63.393-57.928-102.741c-36.069-85.253-40.441-198.924-12.023-267.783
		c19.674-46.999,104.927-139.903,149.74-163.949c44.813-24.046,156.298-31.697,214.226-16.395
		c104.927,29.511,178.157,156.298,146.461,253.574c-28.418,86.346-121.322,131.159-179.25,85.253
		c-38.255-29.511-38.255-60.115,1.093-78.695c40.441-19.674,43.72-54.65,6.558-84.16c-54.65-43.72-137.717-16.395-171.6,56.836
		c-85.253,179.25,139.903,359.594,333.362,266.69c126.787-60.115,184.715-153.019,187.994-296.201
		c1.093-74.323-2.186-96.183-27.325-148.647c-42.627-88.532-133.345-177.065-212.04-207.668
		c-52.464-20.767-86.346-26.232-169.414-26.232c-57.929,0-123.508,6.558-147.554,14.209
		c-68.858,22.953-157.391,87.439-203.296,147.554c-24.046,30.604-46.999,61.207-52.464,67.765
		c-51.371,62.3-81.974,218.598-65.579,324.618c26.232,159.577,75.416,252.481,185.808,348.664
		c127.88,110.392,198.924,224.063,238.272,379.268c27.325,109.299,28.418,155.205,6.558,257.946
		c-22.953,110.392-42.627,160.67-90.718,231.714c-63.394,92.904-138.81,158.484-244.83,209.854
		c-88.532,44.813-98.369,46.999-206.575,50.278C1179.466,2240.902,1107.329,2238.716,1082.19,2233.251z"/>
</g>
</svg>
